<?xml version="1.0" encoding="UTF-8"?>
<!DOCTYPE svg PUBLIC "-//W3C//DTD SVG 1.1//EN" "http://www.w3.org/Graphics/SVG/1.1/DTD/svg11.dtd">
<svg xmlns="http://www.w3.org/2000/svg" version="1.1" width="612px" height="172px" style="shape-rendering:geometricPrecision; text-rendering:geometricPrecision; image-rendering:optimizeQuality; fill-rule:evenodd; clip-rule:evenodd" xmlns:xlink="http://www.w3.org/1999/xlink">
<g><path style="opacity:0.867" fill="#000000" d="M 439.5,30.5 C 443.833,30.5 448.167,30.5 452.5,30.5C 452.5,32.1667 452.5,33.8333 452.5,35.5C 451.167,35.5 449.833,35.5 448.5,35.5C 448.5,41.8333 448.5,48.1667 448.5,54.5C 446.833,54.5 445.167,54.5 443.5,54.5C 443.5,48.1667 443.5,41.8333 443.5,35.5C 442.167,35.5 440.833,35.5 439.5,35.5C 439.5,33.8333 439.5,32.1667 439.5,30.5 Z"/></g>
<g><path style="opacity:0.9" fill="#000000" d="M 455.5,30.5 C 457.167,30.5 458.833,30.5 460.5,30.5C 460.5,33.8333 460.5,37.1667 460.5,40.5C 462.5,40.5 464.5,40.5 466.5,40.5C 466.5,37.1667 466.5,33.8333 466.5,30.5C 468.167,30.5 469.833,30.5 471.5,30.5C 471.5,38.5 471.5,46.5 471.5,54.5C 469.833,54.5 468.167,54.5 466.5,54.5C 466.5,51.5 466.5,48.5 466.5,45.5C 464.5,45.5 462.5,45.5 460.5,45.5C 460.5,48.5 460.5,51.5 460.5,54.5C 458.833,54.5 457.167,54.5 455.5,54.5C 455.5,46.5 455.5,38.5 455.5,30.5 Z"/></g>
<g><path style="opacity:0.852" fill="#000000" d="M 474.5,30.5 C 478.5,30.5 482.5,30.5 486.5,30.5C 486.5,32.1667 486.5,33.8333 486.5,35.5C 484.5,35.5 482.5,35.5 480.5,35.5C 480.5,37.1667 480.5,38.8333 480.5,40.5C 482.5,40.5 484.5,40.5 486.5,40.5C 486.5,42.1667 486.5,43.8333 486.5,45.5C 484.5,45.5 482.5,45.5 480.5,45.5C 480.5,46.8333 480.5,48.1667 480.5,49.5C 482.5,49.5 484.5,49.5 486.5,49.5C 486.5,51.1667 486.5,52.8333 486.5,54.5C 482.5,54.5 478.5,54.5 474.5,54.5C 474.5,46.5 474.5,38.5 474.5,30.5 Z"/></g>
<g><path style="opacity:0.954" fill="#000000" d="M 276.5,31.5 C 302.472,29.9809 321.472,40.6475 333.5,63.5C 325.521,64.6649 317.521,64.8316 309.5,64C 290.889,46.8451 273.056,47.6784 256,66.5C 245.288,88.6975 250.788,105.531 272.5,117C 286.937,121.184 299.27,117.851 309.5,107C 317.521,106.168 325.521,106.335 333.5,107.5C 318.102,135.194 295.102,144.694 264.5,136C 255.49,132.577 247.99,127.077 242,119.5C 241.5,125.825 241.334,132.158 241.5,138.5C 234.5,138.5 227.5,138.5 220.5,138.5C 220.667,117.831 220.5,97.164 220,76.5C 211.833,96.8333 203.667,117.167 195.5,137.5C 189.946,138.806 184.446,138.806 179,137.5C 171,117.5 163,97.5 155,77.5C 154.5,97.8306 154.333,118.164 154.5,138.5C 147.5,138.5 140.5,138.5 133.5,138.5C 133.666,133.156 133.499,127.823 133,122.5C 122.746,132.923 110.246,138.089 95.5,138C 83.8381,138.5 72.1714,138.667 60.5,138.5C 60.5,109.5 60.5,80.5 60.5,51.5C 55.5,51.5 50.5,51.5 45.5,51.5C 45.5,80.5 45.5,109.5 45.5,138.5C 38.5,138.5 31.5,138.5 24.5,138.5C 24.5,109.5 24.5,80.5 24.5,51.5C 18.8333,51.5 13.1667,51.5 7.5,51.5C 7.5,45.1667 7.5,38.8333 7.5,32.5C 38.8624,32.0623 70.1957,32.5623 101.5,34C 113.829,35.5814 124.329,40.748 133,49.5C 133.499,43.8431 133.666,38.1764 133.5,32.5C 142.192,32.1686 150.859,32.502 159.5,33.5C 168.575,55.9784 177.908,78.3117 187.5,100.5C 197.092,78.3117 206.425,55.9784 215.5,33.5C 224.141,32.502 232.808,32.1686 241.5,32.5C 241.334,38.8421 241.5,45.1754 242,51.5C 251.258,40.7933 262.758,34.1266 276.5,31.5 Z M 81.5,51.5 C 116.605,50.0911 130.438,66.4244 123,100.5C 118.709,110.458 111.209,116.291 100.5,118C 94.1754,118.5 87.8421,118.666 81.5,118.5C 81.5,96.1667 81.5,73.8333 81.5,51.5 Z"/></g>
<g><path style="opacity:0.902" fill="#e01e2a" d="M 385.5,31.5 C 389.226,31.1774 392.893,31.5108 396.5,32.5C 379.833,67.8333 363.167,103.167 346.5,138.5C 342.833,139.833 339.167,139.833 335.5,138.5C 352.452,102.932 369.118,67.2653 385.5,31.5 Z"/></g>
<g><path style="opacity:0.899" fill="#e01e2a" d="M 409.5,31.5 C 413.167,31.5 416.833,31.5 420.5,31.5C 404.492,67.3419 387.992,103.009 371,138.5C 367.214,139.795 363.38,139.795 359.5,138.5C 376.452,102.932 393.118,67.2653 409.5,31.5 Z"/></g>
<g><path style="opacity:0.796" fill="#000000" d="M 429.5,58.5 C 435.072,57.9896 440.405,58.8229 445.5,61C 451.011,67.9421 450.678,74.6088 444.5,81C 439.599,82.3254 434.599,82.8254 429.5,82.5C 429.5,74.5 429.5,66.5 429.5,58.5 Z M 435.5,63.5 C 440.792,63.295 443.792,65.795 444.5,71C 443.299,75.6049 440.299,77.7716 435.5,77.5C 435.5,72.8333 435.5,68.1667 435.5,63.5 Z"/></g>
<g><path style="opacity:0.872" fill="#000000" d="M 451.5,58.5 C 453.167,58.5 454.833,58.5 456.5,58.5C 456.5,66.5 456.5,74.5 456.5,82.5C 454.833,82.5 453.167,82.5 451.5,82.5C 451.5,74.5 451.5,66.5 451.5,58.5 Z"/></g>
<g><path style="opacity:0.819" fill="#000000" d="M 466.5,58.5 C 472.613,57.4104 477.779,59.077 482,63.5C 482.483,64.448 482.649,65.448 482.5,66.5C 480.473,66.6621 478.473,66.4955 476.5,66C 470.59,62.115 466.59,63.615 464.5,70.5C 466.59,77.385 470.59,78.885 476.5,75C 473.854,74.5026 471.187,74.3359 468.5,74.5C 468.5,72.8333 468.5,71.1667 468.5,69.5C 473.5,69.5 478.5,69.5 483.5,69.5C 482.278,81.4532 475.944,85.2865 464.5,81C 459.315,76.0528 458.149,70.2194 461,63.5C 462.73,61.5981 464.563,59.9314 466.5,58.5 Z"/></g>
<g><path style="opacity:0.872" fill="#000000" d="M 485.5,58.5 C 487.167,58.5 488.833,58.5 490.5,58.5C 490.5,66.5 490.5,74.5 490.5,82.5C 488.833,82.5 487.167,82.5 485.5,82.5C 485.5,74.5 485.5,66.5 485.5,58.5 Z"/></g>
<g><path style="opacity:0.848" fill="#000000" d="M 493.5,58.5 C 497.833,58.5 502.167,58.5 506.5,58.5C 506.5,60.1667 506.5,61.8333 506.5,63.5C 505.167,63.5 503.833,63.5 502.5,63.5C 502.5,69.8333 502.5,76.1667 502.5,82.5C 500.833,82.5 499.167,82.5 497.5,82.5C 497.5,76.1667 497.5,69.8333 497.5,63.5C 496.167,63.5 494.833,63.5 493.5,63.5C 493.5,61.8333 493.5,60.1667 493.5,58.5 Z"/></g>
<g><path style="opacity:0.836" fill="#000000" d="M 513.5,58.5 C 515.288,58.2148 516.955,58.5481 518.5,59.5C 522.098,66.9656 525.098,74.6322 527.5,82.5C 525.5,82.5 523.5,82.5 521.5,82.5C 521.409,76.4301 518.576,74.4301 513,76.5C 512.458,82.1642 509.625,83.8309 504.5,81.5C 507.79,73.9238 510.79,66.2571 513.5,58.5 Z M 515.5,67.5 C 516.267,68.172 516.934,69.0053 517.5,70C 515.939,70.1881 515.272,69.3547 515.5,67.5 Z"/></g>
<g><path style="opacity:0.86" fill="#000000" d="M 529.5,58.5 C 531.167,58.5 532.833,58.5 534.5,58.5C 534.5,64.8333 534.5,71.1667 534.5,77.5C 536.833,77.5 539.167,77.5 541.5,77.5C 541.5,79.1667 541.5,80.8333 541.5,82.5C 537.5,82.5 533.5,82.5 529.5,82.5C 529.5,74.5 529.5,66.5 529.5,58.5 Z"/></g>
<g><path style="opacity:0.879" fill="#000000" d="M 419.5,86.5 C 421.833,86.5 424.167,86.5 426.5,86.5C 427.781,91.0623 429.614,95.3957 432,99.5C 433.667,95.5 435.333,91.5 437,87.5C 439.041,86.5769 441.208,86.2436 443.5,86.5C 443.5,94.5 443.5,102.5 443.5,110.5C 441.833,110.5 440.167,110.5 438.5,110.5C 438.665,106.818 438.499,103.152 438,99.5C 433.667,114.167 429.333,114.167 425,99.5C 424.501,103.152 424.335,106.818 424.5,110.5C 422.833,110.5 421.167,110.5 419.5,110.5C 419.5,102.5 419.5,94.5 419.5,86.5 Z"/></g>
<g><path style="opacity:0.848" fill="#000000" d="M 446.5,86.5 C 450.5,86.5 454.5,86.5 458.5,86.5C 458.5,88.1667 458.5,89.8333 458.5,91.5C 456.167,91.5 453.833,91.5 451.5,91.5C 451.5,92.8333 451.5,94.1667 451.5,95.5C 453.833,95.5 456.167,95.5 458.5,95.5C 458.5,97.1667 458.5,98.8333 458.5,100.5C 456.167,100.5 453.833,100.5 451.5,100.5C 451.5,102.167 451.5,103.833 451.5,105.5C 453.833,105.5 456.167,105.5 458.5,105.5C 458.5,107.167 458.5,108.833 458.5,110.5C 454.5,110.5 450.5,110.5 446.5,110.5C 446.5,102.5 446.5,94.5 446.5,86.5 Z"/></g>
<g><path style="opacity:0.802" fill="#000000" d="M 460.5,86.5 C 466.105,85.9081 471.439,86.7415 476.5,89C 481.825,95.2936 481.825,101.627 476.5,108C 471.405,110.177 466.072,111.01 460.5,110.5C 460.5,102.5 460.5,94.5 460.5,86.5 Z M 466.5,91.5 C 471.284,91.1082 474.284,93.2748 475.5,98C 474.77,103.231 471.77,105.731 466.5,105.5C 466.5,100.833 466.5,96.1667 466.5,91.5 Z"/></g>
<g><path style="opacity:0.92" fill="#000000" d="M 482.5,86.5 C 484.167,86.5 485.833,86.5 487.5,86.5C 487.5,94.5 487.5,102.5 487.5,110.5C 485.833,110.5 484.167,110.5 482.5,110.5C 482.5,102.5 482.5,94.5 482.5,86.5 Z"/></g>
<g><path style="opacity:0.836" fill="#000000" d="M 499.5,86.5 C 501.167,86.5 502.833,86.5 504.5,86.5C 506.902,94.3678 509.902,102.034 513.5,109.5C 508.08,111.395 505.414,109.395 505.5,103.5C 503.076,103.192 500.743,103.526 498.5,104.5C 497.79,109.219 495.123,111.219 490.5,110.5C 492.94,102.287 495.94,94.2869 499.5,86.5 Z M 500.5,96.5 C 502.337,96.6395 502.67,97.3061 501.5,98.5C 500.702,98.0431 500.369,97.3764 500.5,96.5 Z"/></g>
<g><path style="opacity:0.71" fill="#e01e2a" d="M 604.5,109.5 C 605.978,109.238 607.311,109.571 608.5,110.5C 604,120.167 599.5,129.833 595,139.5C 593.506,140.747 592.006,140.747 590.5,139.5C 595.365,129.561 600.032,119.561 604.5,109.5 Z"/></g>
<g><path style="opacity:0.811" fill="#000000" d="M 414.5,113.5 C 420.762,113.13 425.429,115.63 428.5,121C 424.453,121.707 420.619,121.207 417,119.5C 410.957,120.237 408.957,123.571 411,129.5C 414.233,133.497 417.733,133.997 421.5,131C 429.41,129.219 430.41,130.885 424.5,136C 415.237,140.617 408.737,138.117 405,128.5C 404.149,120.855 407.315,115.855 414.5,113.5 Z"/></g>
<g><path style="opacity:0.827" fill="#000000" d="M 439.5,113.5 C 450.976,114.083 455.476,120.083 453,131.5C 447.172,139.388 440.339,140.388 432.5,134.5C 426.761,124.71 429.094,117.71 439.5,113.5 Z M 438.5,119.5 C 442.639,118.704 445.805,120.037 448,123.5C 449.249,129.011 447.082,132.011 441.5,132.5C 433.7,129.763 432.7,125.429 438.5,119.5 Z"/></g>
<g><path style="opacity:0.804" fill="#000000" d="M 521.5,119.5 C 521.611,120.117 521.944,120.617 522.5,121C 521.333,121.167 520.167,121.333 519,121.5C 515.298,119.966 511.465,119.466 507.5,120C 501.903,126.024 503.07,130.524 511,133.5C 514.386,130.823 518.219,129.989 522.5,131C 515.601,140.366 508.101,140.866 500,132.5C 496.221,121.828 499.888,115.494 511,113.5C 515.568,113.861 519.068,115.861 521.5,119.5 Z"/></g>
<g><path style="opacity:0.766" fill="#000000" d="M 455.5,114.5 C 457.5,114.5 459.5,114.5 461.5,114.5C 461.5,120.833 461.5,127.167 461.5,133.5C 463.5,133.5 465.5,133.5 467.5,133.5C 467.5,135.167 467.5,136.833 467.5,138.5C 463.5,138.5 459.5,138.5 455.5,138.5C 455.5,130.5 455.5,122.5 455.5,114.5 Z"/></g>
<g><path style="opacity:0.86" fill="#000000" d="M 470.5,114.5 C 472.167,114.5 473.833,114.5 475.5,114.5C 475.5,120.833 475.5,127.167 475.5,133.5C 477.833,133.5 480.167,133.5 482.5,133.5C 482.5,135.167 482.5,136.833 482.5,138.5C 478.5,138.5 474.5,138.5 470.5,138.5C 470.5,130.5 470.5,122.5 470.5,114.5 Z"/></g>
<g><path style="opacity:0.801" fill="#000000" d="M 484.5,114.5 C 488.5,114.5 492.5,114.5 496.5,114.5C 496.5,116.167 496.5,117.833 496.5,119.5C 494.5,119.5 492.5,119.5 490.5,119.5C 490.5,120.833 490.5,122.167 490.5,123.5C 492.5,123.5 494.5,123.5 496.5,123.5C 496.5,125.167 496.5,126.833 496.5,128.5C 494.5,128.5 492.5,128.5 490.5,128.5C 490.5,130.167 490.5,131.833 490.5,133.5C 492.5,133.5 494.5,133.5 496.5,133.5C 496.5,135.167 496.5,136.833 496.5,138.5C 492.5,138.5 488.5,138.5 484.5,138.5C 484.5,130.5 484.5,122.5 484.5,114.5 Z"/></g>
<g><path style="opacity:0.86" fill="#000000" d="M 521.5,119.5 C 521.5,117.833 521.5,116.167 521.5,114.5C 525.833,114.5 530.167,114.5 534.5,114.5C 534.5,116.167 534.5,117.833 534.5,119.5C 533.167,119.5 531.833,119.5 530.5,119.5C 530.5,125.833 530.5,132.167 530.5,138.5C 528.833,138.5 527.167,138.5 525.5,138.5C 525.5,132.167 525.5,125.833 525.5,119.5C 524.167,119.5 522.833,119.5 521.5,119.5 Z"/></g>
<g><path style="opacity:0.872" fill="#000000" d="M 537.5,114.5 C 539.167,114.5 540.833,114.5 542.5,114.5C 542.5,122.5 542.5,130.5 542.5,138.5C 540.833,138.5 539.167,138.5 537.5,138.5C 537.5,130.5 537.5,122.5 537.5,114.5 Z"/></g>
<g><path style="opacity:0.821" fill="#000000" d="M 544.5,115.5 C 546.56,114.189 548.726,114.189 551,115.5C 552.944,119.723 554.611,124.056 556,128.5C 558.312,124.405 560.146,120.072 561.5,115.5C 563.5,114.167 565.5,114.167 567.5,115.5C 564.5,122.833 561.5,130.167 558.5,137.5C 556.994,138.747 555.494,138.747 554,137.5C 551.057,129.961 547.891,122.627 544.5,115.5 Z"/></g>
<g><path style="opacity:0.834" fill="#000000" d="M 569.5,114.5 C 573.5,114.5 577.5,114.5 581.5,114.5C 581.5,116.167 581.5,117.833 581.5,119.5C 579.167,119.5 576.833,119.5 574.5,119.5C 574.5,120.833 574.5,122.167 574.5,123.5C 576.833,123.5 579.167,123.5 581.5,123.5C 581.5,125.167 581.5,126.833 581.5,128.5C 579.167,128.5 576.833,128.5 574.5,128.5C 574.5,130.167 574.5,131.833 574.5,133.5C 576.833,133.5 579.167,133.5 581.5,133.5C 581.5,135.167 581.5,136.833 581.5,138.5C 577.5,138.5 573.5,138.5 569.5,138.5C 569.5,130.5 569.5,122.5 569.5,114.5 Z"/></g>
</svg>
